<?xml version="1.0" encoding="windows-1252"?>
<!DOCTYPE svg PUBLIC "-//W3C//DTD SVG 1.1//EN" "http://www.w3.org/Graphics/SVG/1.1/DTD/svg11.dtd">
<svg version="1.1" xmlns="http://www.w3.org/2000/svg" viewBox="0 0 468.871 468.871"
  xmlns:xlink="http://www.w3.org/1999/xlink" enable-background="new 0 0 468.871 468.871">
  <style>
    @media (prefers-color-scheme: dark) {
      path {
        fill: #fff;
      }
    }
  </style>
  <g>
    <path
      d="m467.244,186.322l-9.929-24.005c-5.267-12.742-15.877-22.577-28.705-27.085v-33.682c0-14.423-10.578-34.982-60.973-51.019-35.78-11.386-83.16-17.656-133.413-17.656s-97.633,6.271-133.413,17.656c-50.393,16.037-60.971,36.596-60.971,51.02v30.972h-18.498c-7.14,0-13.771,3.544-17.739,9.479-3.968,5.936-4.708,13.418-1.978,20.016l9.933,24.004c5.321,12.859 15.696,22.479 28.28,26.975v154.323c0,14.423 10.578,34.982 60.973,51.019 35.78,11.386 83.16,17.656 133.413,17.656s97.632-6.271 133.413-17.656c50.395-16.037 60.973-36.595 60.973-51.019v-151.505h18.917c7.142,0 13.774-3.543 17.741-9.477 3.968-5.935 4.706-13.418 1.976-20.016zm-360.367-116.732c33.872-10.779 79.098-16.715 127.348-16.715 48.25,0 93.476,5.936 127.348,16.715 21.699,6.905 47.038,19.418 47.038,31.96s-25.339,25.055-47.038,31.96c-33.872,10.779-79.098,16.715-127.348,16.715-48.25,0-93.477-5.936-127.348-16.715-21.699-6.905-47.038-19.418-47.038-31.96s25.339-25.055 47.038-31.96zm-76.837,108.785l-9.933-24.004c-0.067-0.163-0.273-0.66 0.124-1.255 0.397-0.594 0.935-0.594 1.112-0.594h18.497v38.12c-4.264-3.012-7.706-7.205-9.8-12.267zm331.533,220.906c-33.872,10.779-79.098,16.715-127.348,16.715-48.25,0-93.477-5.936-127.348-16.715-21.699-6.905-47.038-19.418-47.038-31.96v-151.506h34.025c5.523,0 10-4.477 10-10s-4.477-10-10-10h-34.024v-62.301c9.221,6.61 22.387,13.14 40.973,19.055 35.78,11.386 83.16,17.656 133.413,17.656s97.632-6.271 133.413-17.656c18.586-5.914 31.752-12.444 40.973-19.054v233.805c-0.001,12.542-25.34,25.056-47.039,31.961zm87.068-204.057c-0.396,0.592-0.936,0.592-1.113,0.592h-18.917v-38.384c4.492,3.062 8.099,7.391 10.222,12.528l9.931,24.009c0.067,0.163 0.274,0.662-0.123,1.255z" />
    <path
      d="m205.279,111.551c5.523,0 10-4.477 10-10 0-10.447 8.5-18.946 18.946-18.946s18.946,8.499 18.946,18.946c0,5.523 4.477,10 10,10s10-4.477 10-10c0-21.475-17.471-38.946-38.946-38.946-21.475,0-38.946,17.471-38.946,38.946 0,5.522 4.477,10 10,10z" />
  </g>
</svg>
