<?xml version="1.0" standalone="no"?>
<!DOCTYPE svg PUBLIC "-//W3C//DTD SVG 20010904//EN"
 "http://www.w3.org/TR/2001/REC-SVG-20010904/DTD/svg10.dtd">
<svg version="1.0" xmlns="http://www.w3.org/2000/svg"
 width="700.000000pt" height="700.000000pt" viewBox="0 0 700.000000 700.000000"
 preserveAspectRatio="xMidYMid meet">
<metadata>
Created by potrace 1.14, written by Peter Selinger 2001-2017
</metadata>
<g transform="translate(0.000000,700.000000) scale(0.100000,-0.100000)"
fill="#000000" stroke="none">
<path d="M3159 6506 c-2 -2 -67 -7 -144 -10 -77 -4 -156 -9 -175 -11 -19 -1
-71 -6 -115 -10 -96 -8 -166 -16 -275 -30 -19 -3 -55 -7 -80 -10 -25 -3 -67
-10 -95 -15 -27 -5 -70 -12 -95 -15 -25 -4 -75 -13 -112 -21 -37 -7 -82 -16
-100 -19 -134 -23 -444 -110 -613 -172 -342 -126 -587 -291 -691 -469 -60
-103 -66 -137 -69 -424 -2 -146 -4 -268 -4 -272 -1 -5 -74 -8 -163 -8 -182 0
-212 -6 -283 -52 -104 -69 -159 -192 -138 -312 10 -57 160 -435 205 -514 69
-123 175 -222 312 -291 l71 -36 0 -1160 c-1 -820 2 -1178 10 -1222 43 -235
308 -462 720 -615 174 -65 510 -161 635 -182 19 -3 71 -13 115 -21 44 -9 96
-18 115 -21 19 -3 60 -9 90 -14 30 -5 75 -12 100 -15 25 -3 56 -8 70 -10 14
-2 50 -6 80 -10 30 -3 71 -8 90 -10 19 -3 69 -7 110 -10 41 -4 91 -8 110 -10
209 -20 853 -27 1120 -12 213 13 358 24 421 33 20 2 56 7 80 9 24 2 60 7 79 9
19 3 55 8 80 11 275 35 628 113 875 192 497 161 787 364 881 618 18 47 19 108
21 1170 1 616 3 1145 3 1176 l0 57 158 0 c90 0 176 5 202 12 109 29 197 114
227 220 3 8 6 43 8 78 4 72 -2 93 -100 327 -106 254 -136 305 -235 405 -42 42
-161 121 -210 140 -19 7 -39 16 -43 20 -4 4 -8 132 -9 286 -1 331 -5 353 -86
484 -176 282 -738 527 -1499 654 -142 24 -167 28 -278 42 -83 11 -98 12 -160
19 -124 13 -143 14 -245 21 -58 3 -121 8 -140 11 -40 5 -826 13 -831 9z m846
-310 c28 -2 88 -7 135 -10 124 -9 222 -19 310 -31 14 -2 52 -6 85 -10 33 -4
112 -15 175 -26 173 -30 148 -25 295 -55 106 -21 308 -75 420 -112 216 -71
430 -175 532 -258 169 -138 186 -239 59 -367 -111 -113 -334 -227 -626 -322
-105 -33 -391 -106 -465 -118 -16 -3 -68 -12 -115 -21 -91 -17 -119 -21 -190
-31 -25 -3 -56 -8 -70 -10 -38 -6 -98 -13 -170 -21 -36 -3 -72 -8 -80 -9 -8
-2 -62 -6 -120 -10 -58 -5 -121 -9 -140 -11 -271 -20 -820 -20 -1095 1 -85 6
-208 17 -250 21 -22 2 -67 6 -100 9 -33 3 -67 7 -75 10 -8 2 -40 7 -70 10 -59
7 -100 13 -140 20 -14 3 -38 7 -55 9 -388 61 -764 170 -1005 291 -102 51 -227
134 -274 181 -51 52 -88 132 -81 174 34 191 406 397 965 534 134 33 353 76
460 91 25 3 72 10 105 15 104 16 161 22 300 35 44 4 96 8 115 10 19 2 94 7
165 11 72 3 132 8 134 10 5 5 802 -4 866 -10z m-3041 -1235 c214 -135 541
-255 922 -340 82 -18 102 -23 167 -36 47 -9 265 -44 322 -51 33 -5 62 -9 65
-9 16 -4 165 -21 265 -30 291 -26 373 -29 775 -30 361 0 519 5 685 20 28 2 84
7 125 10 71 6 94 8 190 20 477 60 860 147 1195 273 111 41 278 122 353 171 34
23 65 41 67 41 3 0 5 -791 5 -1757 l0 -1757 -21 -43 c-84 -174 -463 -362 -988
-488 -53 -13 -109 -26 -126 -29 -16 -2 -41 -7 -55 -10 -13 -3 -40 -8 -60 -11
-20 -3 -47 -8 -60 -10 -71 -14 -228 -37 -340 -51 -30 -3 -66 -7 -80 -9 -14 -2
-59 -6 -100 -10 -41 -4 -88 -8 -105 -10 -247 -27 -1101 -27 -1322 0 -16 2 -66
6 -113 10 -47 3 -96 8 -110 10 -14 2 -50 7 -80 10 -30 3 -66 8 -80 10 -14 2
-63 9 -110 15 -109 14 -396 72 -525 105 -55 14 -109 28 -119 30 -11 3 -56 16
-100 31 -359 117 -604 258 -684 394 l-27 45 -1 1151 0 1152 271 0 c300 0 312
2 356 63 52 73 27 176 -52 216 -36 18 -59 20 -307 19 l-268 -1 0 463 c0 254 2
462 5 462 2 0 32 -17 65 -39z m-384 -240 c13 -1 15 -38 14 -274 -1 -149 -2
-276 -3 -280 -2 -13 -51 29 -87 76 -19 24 -54 93 -79 153 -133 318 -129 307
-113 318 12 9 172 13 268 7z m5894 -140 c45 -49 73 -104 154 -302 71 -174 79
-198 65 -200 -41 -4 -277 -3 -284 2 -7 4 -12 294 -9 538 l0 34 22 -19 c12 -10
36 -34 52 -53z"/>
<path d="M3458 6065 c-2 -2 -23 -5 -48 -8 -132 -17 -272 -96 -363 -206 -105
-127 -162 -353 -112 -439 46 -77 141 -98 214 -48 43 30 56 58 67 141 18 145
124 250 261 259 159 10 278 -94 302 -265 11 -80 21 -100 64 -133 75 -57 185
-27 222 61 25 58 5 200 -41 300 -79 171 -255 305 -430 329 -55 7 -132 12 -136
9z"/>
</g>
</svg>
